<?xml version="1.0" encoding="UTF-8" standalone="no"?>
<!-- Created with Inkscape (http://www.inkscape.org/) -->

<svg
   xmlns:osb="http://www.openswatchbook.org/uri/2009/osb"
   xmlns:dc="http://purl.org/dc/elements/1.1/"
   xmlns:cc="http://creativecommons.org/ns#"
   xmlns:rdf="http://www.w3.org/1999/02/22-rdf-syntax-ns#"
   xmlns:svg="http://www.w3.org/2000/svg"
   xmlns="http://www.w3.org/2000/svg"
   xmlns:sodipodi="http://sodipodi.sourceforge.net/DTD/sodipodi-0.dtd"
   xmlns:inkscape="http://www.inkscape.org/namespaces/inkscape"
   version="1.1"
   id="svg10"
   width="2560"
   height="1440"
   viewBox="0 0 2560 1440"
   sodipodi:docname="wcorp_logo_no_text.svg"
   inkscape:version="0.92.4 (5da689c313, 2019-01-14)">
  <metadata
     id="metadata16">
    <rdf:RDF>
      <cc:Work
         rdf:about="">
        <dc:format>image/svg+xml</dc:format>
        <dc:type
           rdf:resource="http://purl.org/dc/dcmitype/StillImage" />
      </cc:Work>
    </rdf:RDF>
  </metadata>
  <defs
     id="defs14">
    <linearGradient
       id="linearGradient4583"
       osb:paint="solid">
      <stop
         style="stop-color:#eeeeee;stop-opacity:1;"
         offset="0"
         id="stop4581" />
    </linearGradient>
    <linearGradient
       id="linearGradient4571"
       osb:paint="solid">
      <stop
         style="stop-color:#eeeeee;stop-opacity:1;"
         offset="0"
         id="stop4569" />
    </linearGradient>
  </defs>
  <sodipodi:namedview
     pagecolor="#ffffff"
     bordercolor="#666666"
     borderopacity="1"
     objecttolerance="10"
     gridtolerance="10"
     guidetolerance="10"
     inkscape:pageopacity="0"
     inkscape:pageshadow="2"
     inkscape:window-width="1920"
     inkscape:window-height="1017"
     id="namedview12"
     showgrid="false"
     inkscape:zoom="0.41738942"
     inkscape:cx="1222.5986"
     inkscape:cy="806.74393"
     inkscape:window-x="-8"
     inkscape:window-y="-8"
     inkscape:window-maximized="1"
     inkscape:current-layer="svg10" />
  <path
     inkscape:connector-curvature="0"
     id="path42"
     d="m 2087.3333,1292.7301 c 29.0162,-4.1414 48.973,-8.9884 77.3334,-18.782 29.4288,-10.1626 50.073,-19.0739 67.1112,-28.9693 5.6221,-3.2653 12.71,-7.3713 15.7508,-9.1245 10.053,-5.7963 36.1062,-23.7023 46.0354,-31.6396 22.4383,-17.9368 54.4191,-50.3473 74.7735,-75.778 14.4916,-18.1058 32.8231,-47.2025 43.1163,-68.4367 4.088,-8.4333 9.1192,-18.6333 11.1802,-22.6667 5.945,-11.6334 21.0062,-58.19947 25.3264,-78.30397 4.5807,-21.31622 8.0395,-45.30716 8.0395,-55.76362 v -7.30927 l -35.6667,0.35512 -35.6666,0.35511 -0.91,10 c -0.5006,5.5 -1.8883,14.5 -3.084,20 -1.1956,5.5 -2.9584,14.2 -3.9171,19.33333 -4.5064,24.12788 -25.8775,76.7384 -41.7435,102.7629 -30.3698,49.8144 -73.6562,93.5261 -121.6788,122.8746 -30.449,18.6086 -71.7136,35.6547 -105.4582,43.5641 -33.1728,7.7753 -36.0579,8.0496 -83.8751,7.9726 -29.3423,-0.047 -47.64,-0.6322 -53.3333,-1.7051 -21.154,-3.9864 -45.2775,-10.2728 -65.3334,-17.0255 -9.5398,-3.212 -43.0461,-17.4727 -48.6666,-20.7131 -1.4667,-0.8456 -8.3667,-4.8075 -15.3334,-8.8043 -6.9666,-3.9968 -15.6666,-9.4909 -19.3333,-12.2091 -3.6667,-2.7182 -12.6667,-9.3902 -20,-14.8265 -25.6396,-19.0071 -64.0428,-61.0366 -80.4643,-88.0623 -2.8389,-4.6723 -6.7152,-10.7834 -8.6137,-13.5804 -8.8327,-13.012 -25.2957,-49.98003 -31.5805,-70.91457 -1.321,-4.4 -3.0844,-9.74508 -3.919,-11.87796 -4.0102,-10.25017 -12.0842,-49.56346 -12.0873,-58.85537 0,-2.97 -0.7219,-6.12 -1.6019,-7 -2.4566,-2.45671 -69.8577,-2.26961 -70.8041,0.19655 -1.012,2.63732 3.8536,38.94058 7.8009,58.20345 7.5699,36.94172 25.3766,83.8976 45.5064,120 7.9298,14.2219 26.8355,42.4599 37.4927,56 15.4365,19.6121 59.4336,62.5491 78.5597,76.6667 34.1276,25.1907 46.2264,32.6602 75.0444,46.3313 47.3891,22.4809 86.6872,33.4465 144,40.1813 2.5667,0.3016 23.8667,0.3877 47.3334,0.1914 31.5398,-0.2639 46.8392,-0.9525 58.6666,-2.6406 z m -585.8802,-209.0634 c 2.275,-3.1167 6.8074,-10.9617 10.072,-17.4333 l 5.9354,-11.7666 -3.8962,-9.6495 c -11.8176,-29.2685 -27.2684,-94.86254 -29.6772,-125.99067 -0.7026,-9.07868 -1.6534,-17.115 -2.1128,-17.8585 -0.5531,-0.89493 -12.147,-1.04346 -34.3048,-0.43946 -18.4083,0.50177 -54.7391,1.50142 -80.7354,2.22145 -25.9962,0.72003 -57.7962,2.18416 -70.6667,3.25361 -12.8704,1.06947 -30.6007,2.55671 -39.4007,3.30499 -27.5098,2.33919 -47.1404,3.96045 -72.6667,6.00145 -13.5667,1.08475 -46.8667,3.7883 -74,6.0079 -27.1333,2.21958 -56.8333,4.64146 -66,5.38193 -9.1667,0.74047 -26.8667,2.21817 -39.3333,3.28379 -12.4667,1.06561 -41.8667,3.45317 -65.33337,5.3057 -23.46666,1.85254 -56.76666,4.56911 -74,6.03682 -27.57345,2.34836 -75.33645,6.26617 -107.33333,8.80414 -5.86667,0.46534 -12.29853,1.68238 -14.29303,2.70454 -3.85282,1.97453 -37.17938,15.63065 -100.37364,41.1298 -38.27953,15.44591 -47.93648,19.98061 -46.72496,21.94091 0.34375,0.5562 51.79748,1.4532 114.34164,1.9934 62.54416,0.5401 127.51666,1.1863 144.38332,1.4359 16.86667,0.2496 76.86667,0.8355 133.33334,1.302 170.23533,1.4063 209.43483,1.8937 270.00003,3.3575 31.9,0.7709 71.2,1.6964 87.3333,2.0565 20.0396,0.4474 31.4851,1.2749 36.1248,2.6119 6.6351,1.912 24.6571,11.5908 73.2085,39.3172 13.2,7.5382 27,15.4132 30.6667,17.5001 3.6667,2.0869 7.7129,3.8075 8.9916,3.8237 1.2788,0.016 4.1864,-2.5206 6.4615,-5.6372 z m -20.4595,-260.00003 c 0.7261,-0.91667 1.7275,-6.46667 2.2253,-12.33334 2.2852,-26.92724 10.0059,-68.1107 17.8724,-95.33333 18.7178,-64.77465 48.2046,-123.76668 87.9724,-176 50.7184,-66.61636 112.9742,-118.16784 187.603,-155.34644 41.491,-20.67004 84.7034,-35.52541 129.5124,-44.5232 46.5338,-9.34415 53.7797,-10.00735 110.7728,-10.13884 28.0236,-0.0647 51.4236,-0.59073 52,-1.16905 1.5718,-1.5769 -11.4899,-12.59519 -30.9519,-26.10976 -9.5333,-6.62002 -47.3333,-32.04984 -84,-56.51071 -36.6667,-24.46088 -69.8789,-46.6644 -73.8051,-49.34116 -3.9261,-2.67676 -10.2261,-5.75187 -14,-6.83356 -3.7738,-1.08169 -39.8616,-7.68397 -80.1949,-14.67172 -40.3333,-6.98776 -94.3333,-16.3658 -120,-20.84011 -25.6667,-4.47429 -52.9667,-9.22282 -60.6667,-10.55228 -7.7,-1.32945 -55.7,-9.72713 -106.6666,-18.66152 -104.8315,-18.3768 -109.1104,-18.82278 -197.3334,-20.56738 -23.1,-0.4568 -43.5,-1.09487 -45.3333,-1.41794 -1.8333,-0.32306 -25.5333,-1.2335 -52.6667,-2.02319 -27.1333,-0.7897 -55.9333,-1.660827 -64,-1.935847 C 1131.2667,99.082275 1103.6667,98.19236 1078,97.379708 1052.3333,96.567056 1006.4333,95.016061 976,93.933055 945.56667,92.850048 900.56667,91.390785 876,90.690251 851.43333,89.989715 815.73333,88.815843 796.66667,88.081647 777.6,87.347449 750,86.414711 735.33333,86.008893 c -14.66666,-0.405817 -42.56666,-1.311281 -62,-2.012144 -151.16773,-5.451853 -159.92364,-5.665882 -166.28289,-4.064605 -3.49241,0.879399 -46.25747,18.757791 -95.03347,39.729756 -48.776,20.97198 -103.08364,44.25081 -120.68364,51.73074 -17.6,7.47993 -43.1,18.39785 -56.66666,24.26204 C 221.1,201.51887 174.3,221.6436 130.66667,240.37631 26.348508,285.16228 24.332277,286.11005 27.224185,289.00196 28.713743,290.49152 56.81,286.30952 209.33333,261.89583 325.9698,243.22637 350.65477,239.27065 438,225.25239 c 46.2,-7.41475 88.8,-13.80276 94.66667,-14.19558 5.95822,-0.39894 19.78928,0.23034 31.33333,1.42562 11.36667,1.17689 43.76667,4.27496 72,6.88456 28.23333,2.60961 69.63333,6.50156 92,8.64877 22.36667,2.1472 63.46667,6.04348 91.33333,8.65837 C 847.2,239.28904 885.3,242.90125 904,244.70129 c 18.7,1.80004 62.5,5.99414 97.3333,9.32022 34.8334,3.32606 81.6334,7.82086 104,9.98844 37.872,3.67018 93.0481,8.87534 127.3334,12.01228 34.781,3.18228 71.0904,6.94992 76.3515,7.92258 11.4279,2.11283 16.6803,7.32758 38.3299,38.05519 11.3748,16.14435 88.7728,125.05172 113.6922,159.97708 14.4702,20.28079 15.1217,23.53549 5.2126,26.04464 -9.4985,2.40519 -51.5306,17.49333 -140.9196,50.58548 -12.1,4.47947 -25,8.4928 -28.6666,8.91853 -5.823,0.67608 -28.4019,-1.5315 -63.3334,-6.19225 -5.5,-0.73384 -19.9,-2.51787 -32,-3.96449 -12.1,-1.44663 -34.3,-4.129 -49.3333,-5.9608 -15.0333,-1.83182 -39.9333,-4.84623 -55.3333,-6.69871 -15.4,-1.85247 -42.7,-5.15495 -60.6667,-7.33883 -17.9667,-2.18388 -70.16667,-8.52534 -116,-14.09216 -88.66808,-10.7694 -140.901,-17.11805 -185.57308,-22.55546 -30.82367,-3.75183 -30.33504,-3.78411 -57.25092,3.78198 -9.08013,2.55243 -33.60933,9.22287 -54.50933,14.82319 -20.9,5.60033 -47.6,12.76733 -59.33334,15.92669 C 551.6,538.41424 530.3,544.11748 516,547.92875 c -14.3,3.81128 -40.1,10.7481 -57.33333,15.41518 -17.23334,4.66707 -57.43334,15.4664 -89.33334,23.99852 -93.47894,25.00228 -127.9893,34.9338 -127.9967,36.83538 -0.008,1.98385 7.05096,2.22317 31.76697,1.07705 14.42636,-0.66899 61.32973,-2.13581 104.22973,-3.25964 83.71174,-2.19293 145.58974,-3.92117 214.66667,-5.9956 23.83333,-0.71573 63.13333,-1.68197 87.33333,-2.14719 l 44,-0.84584 85.33334,21.59288 C 855.6,646.47559 935.1,666.60948 985.33333,679.34148 c 138.24537,35.03928 204.86287,51.90109 291.99997,73.90921 43.6334,11.02043 81.2404,20.91716 83.5711,21.99275 2.6023,1.20085 5.6359,4.42589 7.8601,8.35609 10.144,17.92375 22.3826,36.53519 25.6078,38.94204 3.458,2.58058 5.5389,2.70926 44.4645,2.74952 31.118,0.0321 41.1508,-0.35441 42.1568,-1.62442 z m 974.0236,-11 c -0.7696,-22.7253 -9.1697,-61.1162 -20.2549,-92.57104 -23.0584,-65.42996 -53.2588,-113.45864 -101.9932,-162.2034 -26.1134,-26.11879 -43.9038,-41.29151 -66.1024,-56.37576 -28.3522,-19.26567 -65.2368,-37.9329 -94.9676,-48.06288 -10.4679,-3.56663 -21.6494,-7.44978 -24.8479,-8.6292 -6.9123,-2.54887 -39.1757,-9.26603 -58.8512,-12.25264 -18.7616,-2.84792 -86.5333,-4.12152 -107.0239,-2.01126 -32.1181,3.30778 -60.9724,8.69914 -78.3094,14.632 -4.0334,1.38023 -13.3334,4.46612 -20.6667,6.85755 -19.5119,6.36288 -50.7421,20.54384 -74.0692,33.63321 -21.0275,11.79899 -55.3533,36.55427 -59.1333,42.64598 -1.234,1.98877 2.1566,5.93518 23.1984,27 13.5541,13.56892 25.0173,24.67077 25.474,24.67077 0.4565,0 2.9686,-1.65 5.5825,-3.66667 33.7052,-26.00516 77.4107,-48.635 115.6143,-59.86298 44.5609,-13.09639 68.4542,-15.98655 120.898,-14.62394 34.1949,0.88846 43.3562,2.08119 69.7686,9.0832 8.4334,2.23571 18.6334,4.81683 22.6667,5.7358 8.3609,1.905 27.5656,8.91536 34.6012,12.63056 2.6027,1.37438 8.1987,4.01939 12.4355,5.8778 10.6713,4.68083 40.238,21.45331 48.2966,27.39762 3.6667,2.70465 12.3667,9.15828 19.3334,14.34141 6.9666,5.18312 21.9666,18.65108 33.3333,29.9288 41.2656,40.94273 69.4116,86.60499 88.064,142.86945 1.406,4.24107 3.1728,8.86282 3.9261,10.27052 1.5935,2.97746 5.7256,22.13286 9.4956,44.01843 1.4527,8.43333 2.8976,16.09332 3.2111,17.0222 0.4447,1.31785 8.2663,1.61076 35.6032,1.33333 L 2455.3333,822 Z"
     style="fill:#79848f;stroke-width:1.33333337"
     sodipodi:nodetypes="sccccccccscccccccscccsscssccccccccccscccscccccccscsssscsssssccssccscscccccssscccsccsscsscssssssssssssssssccssssscsccccscsscssssssssssccssscsssccscccccsccccccscsscsscscccccccccscc" />
  <path
     inkscape:connector-curvature="0"
     id="path40"
     d="m 2087.1616,1293.2416 c 29.4213,-4.0233 47.2557,-8.2461 75.96,-17.9859 24.2847,-8.2401 53.9668,-20.8703 65.5451,-27.8904 2.9333,-1.7785 8.7182,-5.0391 12.8556,-7.2458 9.1433,-4.8767 38.3494,-24.509 51.1444,-34.3793 28.1856,-21.7428 80.119,-77.2375 89.5964,-95.7402 1.1269,-2.2 3.1296,-5.2 4.4504,-6.6667 4.4014,-4.8872 21.6296,-34.4981 27.5394,-47.3333 3.2078,-6.9667 7.2644,-15.3667 9.015,-18.6667 5.4116,-10.2018 19.4768,-53.00438 24.0977,-73.3333 4.0428,-17.7852 7.1576,-37.39516 9.2532,-58.25569 0.7371,-7.33651 0.5359,-8.41279 -1.8071,-9.66667 -2.8174,-1.50788 -64.9237,-2.05177 -68.7026,-0.60165 -1.4423,0.55342 -2.1231,2.55589 -2.1535,6.33333 -0.024,3.0382 -1.5385,12.72401 -3.3649,21.52401 -1.8263,8.8 -3.9567,19.6 -4.7343,24 -0.7776,4.4 -2.4921,11 -3.8101,14.66667 -1.318,3.66667 -4.3758,12.66667 -6.7948,20 -5.2028,15.77155 -22.0674,52.9251 -28.7479,63.3333 -24.5801,38.2953 -36.056,52.7642 -61.3367,77.3334 -26.7241,25.9721 -62.2969,51.1657 -89.8336,63.6226 -5.5,2.4881 -12.1,5.6346 -14.6666,6.9922 -12.6771,6.7055 -43.8803,16.9349 -69.3435,22.7331 -23.7941,5.4181 -46.5377,6.9893 -91.8207,6.3431 -35.8841,-0.5121 -37.3181,-0.6373 -55.5025,-4.8467 -21.2657,-4.9226 -31.9797,-7.9794 -50,-14.2654 -11.7665,-4.1046 -39.8967,-16.0386 -46,-19.5153 -19.0211,-10.8349 -33.2136,-19.5018 -38.6579,-23.6071 -3.6714,-2.7686 -11.4754,-8.5562 -17.3421,-12.8615 -14.5529,-10.6798 -51.2241,-47.68 -63.1896,-63.7566 -27.3505,-36.7476 -45.2572,-71.2179 -58.2711,-112.17177 -6.0942,-19.17824 -12.5794,-47.74857 -13.7122,-60.4083 -0.6107,-6.82458 -1.8256,-13.12458 -2.6998,-14 -1.9877,-1.99063 -67.7802,-2.94995 -70.7261,-1.03127 -1.682,1.09553 -1.6351,3.85141 0.3633,21.2922 5.1783,45.19293 20.2542,95.98324 41.0058,138.14734 9.7816,19.8747 15.0029,28.5962 36.935,61.6935 19.5668,29.528 72.6704,81.9573 102.6127,101.31 4.4289,2.8625 10.48,7.1272 13.4468,9.4769 9.5872,7.5932 28.9417,17.9803 66.2352,35.5469 25.0785,11.8129 67.1945,23.563 107.2604,29.925 23.8724,3.7907 98.0484,3.7647 125.9012,-0.044 z M 1499.986,1086.4671 c 2.1097,-2.3098 7.0244,-10.3647 10.9217,-17.8998 6.8032,-13.1536 7.0148,-13.877 5.3046,-18.1337 -13.3018,-33.1063 -29.7754,-101.63535 -32.2318,-134.08224 -0.6238,-8.24009 -1.5656,-15.68005 -2.0929,-16.53325 -0.7077,-1.14512 -8.324,-1.32442 -29.0899,-0.68479 -15.4721,0.47656 -49.431,1.50172 -75.4644,2.27811 -47.206,1.40782 -64.6778,2.60534 -203.3333,13.93654 -117.278,9.58419 -135.1095,11.04435 -202.66667,16.59568 -35.2,2.89248 -90.4,7.40916 -122.66666,10.03708 -107.8596,8.7845 -100.18683,7.90608 -110.66667,12.66948 -5.13333,2.33326 -32.13333,13.44851 -60,24.70056 -27.86667,11.25206 -56.66667,22.92163 -64,25.93243 -13.37483,5.4912 -20.67283,9.8217 -19.13819,11.3564 0.45208,0.4521 42.74312,1.0797 93.98008,1.3948 51.23696,0.3151 136.70439,1.2169 189.92763,2.004 53.22323,0.7872 154.32318,2.0159 224.66668,2.7306 70.3434,0.7146 136.8971,1.5094 147.8971,1.7662 11,0.2568 42.7436,0.9173 70.5412,1.4677 31.7506,0.6288 53.1687,1.6117 57.6082,2.6437 7.7354,1.7982 25.7129,11.3638 78.5173,41.7781 19.0667,10.9821 35.4505,20.0292 36.4085,20.1047 0.958,0.076 3.4679,-1.7525 5.5775,-4.0623 z m -17.8771,-263.05527 c 1.092,-1.49455 1.8948,-5.72002 1.8998,-10 0.013,-9.00156 4.0884,-37.2267 8.776,-60.74516 12.4856,-62.64251 41.9942,-132.59311 79.5236,-188.51172 8.4364,-12.57032 25.2476,-34.67864 37.124,-48.82162 11.5286,-13.7289 50.5938,-52.16512 65.2344,-64.18405 13.9744,-11.47208 42.8689,-32.06972 60.6492,-43.23408 48.8217,-30.65568 110.413,-54.93105 170.2158,-67.08833 44.3786,-9.02168 46.364,-9.20696 107.6919,-10.0497 38.8252,-0.53352 56.7076,-1.23068 57.0377,-2.22366 0.8584,-2.58256 -31.8937,-27.92187 -51.4168,-39.77963 -8.3433,-5.06747 -44.8137,-29.37223 -112.347,-74.87076 -18.793,-12.66125 -36.493,-23.67119 -39.3334,-24.46653 -4.6397,-1.29923 -63.3234,-11.73943 -127.8308,-22.74188 -13.2,-2.25142 -33.9,-5.86411 -46,-8.02822 -12.1,-2.16412 -49.9,-8.78573 -84,-14.71469 -34.1,-5.92897 -92.6046,-16.10868 -130.0104,-22.62158 -37.4057,-6.51289 -73.1057,-12.43785 -79.3333,-13.16657 -11.9373,-1.39685 -20.0096,-1.72916 -117.9896,-4.85729 -33.7333,-1.07698 -79.3333,-2.57156 -101.3333,-3.321296 -22,-0.749733 -76.3,-2.540749 -120.6667,-3.980033 -44.3667,-1.439286 -98.96667,-3.234032 -121.33333,-3.988324 -42.95672,-1.448672 -133.84855,-4.433758 -204,-6.699802 -60.92314,-1.96795 -114.7024,-3.765552 -163.66842,-5.470705 -23.65094,-0.823603 -48.55094,-1.227651 -55.33333,-0.897887 l -12.33159,0.599574 -42,18.117742 c -107.99245,46.585221 -153.23554,66.029531 -176,75.640241 -44.3152,18.70901 -235.039163,100.90384 -246.999997,106.44768 -10.648284,4.93548 -13.918832,8.03049 -10.632305,10.06168 1.881512,1.16284 67.478177,-8.81408 208.298972,-31.68119 6.96667,-1.13128 22.26667,-3.57356 34,-5.42727 11.73333,-1.85372 38.13333,-6.06834 58.66667,-9.36582 20.53333,-3.29748 44.83333,-7.18671 54,-8.64274 9.16666,-1.45601 42.76666,-6.82357 74.66666,-11.9279 82.376,-13.18104 77.14068,-12.58458 94.76606,-10.79676 8.37866,0.84986 33.53394,3.27385 55.90061,5.38662 22.36667,2.11278 59.86667,5.68604 83.33333,7.9406 47.82127,4.59442 120.67947,11.5279 182.66667,17.3833 22.73333,2.14741 60.53333,5.73266 84,7.96722 23.46667,2.23456 58.8667,5.56018 78.6667,7.39028 113.9806,10.53514 261.2531,24.80903 269.0415,26.07595 7.2219,1.17477 10.3449,2.50099 15.5177,6.58985 6.7442,5.33102 9.2655,8.67539 52.7409,69.9593 14.5665,20.53333 34.6696,48.73333 44.6735,62.66666 53.8254,74.96782 55.6108,77.75538 51.9836,81.16174 -1.0766,1.01089 -12.4572,5.45444 -25.2906,9.87454 -21.8682,7.53194 -36.059,12.65183 -82,29.58463 -69.3983,25.57869 -67.9063,25.15568 -80.9442,22.94867 -4.614,-0.78104 -13.7891,-2.04635 -20.3891,-2.81178 -30.156,-3.49732 -47.4333,-5.54085 -56.6667,-6.70246 -5.5,-0.69194 -15.4,-1.90507 -22,-2.69587 -6.6,-0.79079 -21.3,-2.63575 -32.6666,-4.09991 C 1139.3,549.12873 1124.6,547.33061 1118,546.59708 c -20.2877,-2.25481 -32.2697,-3.68945 -60.6667,-7.26375 -25.6049,-3.22288 -32.2195,-4.0202 -60.3333,-7.27253 -6.05,-0.69989 -18.5,-2.21027 -27.66667,-3.35639 -32.21204,-4.02752 -88.17025,-10.84237 -126,-15.34485 -12.46666,-1.48379 -27.16666,-3.27992 -32.66666,-3.99144 -5.5,-0.71151 -15.4,-1.93103 -22,-2.71007 -12.82791,-1.51413 -37.65027,-4.59174 -54,-6.69521 -28.09216,-3.61419 -30.81336,-3.45847 -54.66667,3.12827 -20.52869,5.66869 -58.61393,15.9554 -117.33333,31.69136 -13.56667,3.63566 -32.16667,8.65784 -41.33334,11.16037 -9.16666,2.50253 -20.26666,5.47876 -24.66666,6.61383 -4.4,1.13506 -21.2,5.6337 -37.33334,9.99696 C 443.2,566.91688 403.9,577.46392 372,585.99148 c -106.20491,28.39087 -132.97969,36.22016 -132.30647,38.68809 0.46382,1.70023 10.15184,1.51679 216.30647,-4.09568 285.77571,-7.78012 265.32676,-7.61594 286,-2.2963 8.8,2.26441 48.4,12.30985 88,22.32321 39.6,10.01335 93,23.53596 118.66667,30.05024 84.86123,21.53807 147.43173,37.39867 192.00003,48.66888 232.4394,58.77824 219.7757,55.45045 223.3598,58.69409 1.433,1.29674 4.7819,6.32182 7.4423,11.16684 9.9927,18.1983 20.5253,33.1385 24.9071,35.32972 3.7046,1.85262 9.7248,2.10024 44.0664,1.81259 37.6264,-0.31516 39.8777,-0.473 41.6666,-2.92133 z m 973.8574,-2.01543 c 1.749,-3.26811 -2.0978,-31.78711 -7.7702,-57.60552 -4.0137,-18.26901 -17.5305,-60.00532 -22.7413,-70.21951 -1.5767,-3.09052 -5.2113,-11.02485 -8.0769,-17.63185 -9.6384,-22.22264 -26.3798,-49.50005 -49.0623,-79.93952 -13.106,-17.58803 -54.6513,-59.90105 -72.0723,-73.40412 -14.3637,-11.13344 -36.6113,-26.92947 -44.2433,-31.41333 -3.3,-1.93878 -9.3,-5.48364 -13.3333,-7.8775 -30.1042,-17.86732 -84.8507,-38.70677 -120.9622,-46.0446 -36.7325,-7.46404 -61.7534,-9.64773 -101.0378,-8.81802 -72.1115,1.52304 -124.6563,14.2136 -186.6667,45.08354 -17.1223,8.52382 -32.0928,16.82758 -38.7452,21.49098 -2.8901,2.02598 -8.6572,5.92598 -12.8159,8.66666 -15.8977,10.47732 -30.4389,22.88826 -30.4389,25.97966 0,2.07781 7.1407,10.12524 23.6528,26.65654 13.0091,13.02411 24.4656,23.68019 25.4591,23.68019 0.9936,0 6.9604,-3.75 13.2597,-8.33333 22.9172,-16.67436 40.6564,-26.78342 74.2951,-42.33847 16.1854,-7.4844 44.0806,-15.87389 78.0274,-23.46672 8.0408,-1.79849 19.1412,-2.31641 57.3059,-2.67377 52.7871,-0.49427 57.9228,-0.0145 89.3333,8.34473 9.9,2.63468 20.4859,5.28761 23.5243,5.89539 5.7941,1.15908 28.0929,9.5207 33.8091,12.67777 1.8333,1.01257 6.881,3.36328 11.2173,5.2238 9.6756,4.15149 36.5408,19.05529 45.026,24.9788 26.3675,18.40697 34.4595,25.10592 55.1939,45.6918 31.9624,31.73349 53.48,61.63215 71.836,99.81611 15.84,32.95056 24.8226,61.73561 31.4437,100.76261 1.4225,8.38496 3.3432,15.72577 4.2681,16.31291 0.9248,0.58714 16.8106,1.07673 35.3014,1.08796 31.9948,0.0195 33.687,-0.10547 35.0132,-2.58319 z"
     style="fill:#6d7985;stroke-width:1.33333337"
     sodipodi:nodetypes="cccccccccccccccssccccccscccccsccccsscccscccccccssssscsccsccscccccccsccccsscscccssssssssssscssssssscscsssssscccccssscccsssscccsssscsscssssscscscccccscscsssccscscccssccccsccccc" />
  <path
     inkscape:connector-curvature="0"
     id="path36"
     d="m 1280,1440 c -853.33333,0 -426.66667,0 0,0 z m 806.6667,-145.9612 c 45.4758,-6.7426 88.7242,-19.8664 125.9174,-38.2098 59.0187,-29.1077 99.359,-60.4132 143.9618,-111.7196 22.3681,-25.7299 42.8505,-56.3921 56.1854,-84.1094 4.0572,-8.4333 9.0799,-18.6333 11.1614,-22.6667 6.0178,-11.661 21.2438,-58.64494 25.4408,-78.50445 4.937,-23.36186 8.2502,-47.54317 7.7372,-56.46893 l -0.404,-7.02659 -35.1696,-0.3558 c -24.8304,-0.2512 -35.7078,0.0908 -37,1.16326 -1.1111,0.92205 -1.8374,4.20598 -1.8479,8.3558 -0.013,3.76021 -1.23,12.53674 -2.7119,19.50341 -1.482,6.96667 -3.3265,16.26667 -4.099,20.66667 -1.4534,8.27714 -14.2462,47.78418 -18.6319,57.53933 -20.9144,46.5197 -40.0585,75.7069 -70.8788,108.0616 -20.9216,21.9631 -27.8524,28.2873 -44.9943,41.0563 -46.1456,34.3739 -100.3385,57.5676 -159.3333,68.1921 -11.1097,2.0008 -20.6713,2.3956 -57.3333,2.367 -47.0687,-0.037 -52.4379,-0.5265 -80.1979,-7.3166 -24.4337,-5.9765 -43.902,-12.4705 -64.2164,-21.4206 -33.4047,-14.7175 -45.8584,-22.1609 -79.5857,-47.5671 -8.7083,-6.5598 -33.7454,-30.4261 -46.4159,-44.2454 -9.2664,-10.1066 -24.6792,-30.551 -31.6633,-42 -2.6842,-4.4 -6.4336,-10.2884 -8.3322,-13.0854 -1.8986,-2.797 -7.7473,-13.897 -12.9969,-24.6667 -8.5683,-17.5776 -13.4965,-30.24305 -22.4052,-57.5812 -4.5824,-14.06179 -11.0296,-43.88907 -11.8163,-54.66667 -1.1662,-15.97709 2.262,-14.66666 -38.3702,-14.66666 -32.2223,0 -35.3407,0.19978 -36.4216,2.33333 -1.3966,2.75675 3.3745,40.99163 7.6117,61 7.6549,36.14667 25.4768,82.8659 45.0131,118 6.9125,12.4315 26.1586,41.4268 36.2858,54.6667 4.7679,6.2333 21.3083,23.9496 36.7566,39.3695 26.7226,26.6736 42.8342,40.5318 59.337,51.0381 4.0796,2.5971 9.5174,6.3855 12.084,8.4185 8.7243,6.9104 25.4678,15.8774 63.3334,33.9183 5.1333,2.4458 17.7333,7.2532 28,10.6833 10.2666,3.43 19.5666,6.6993 20.6666,7.2651 5.9303,3.0502 57.7935,12.7849 80.6667,15.1411 2.9333,0.3022 24.2333,0.3834 47.3333,0.1805 31.0735,-0.2729 45.9891,-0.9604 57.3334,-2.6423 z m -585.712,-207.8112 c 2.1436,-2.4415 7.0485,-10.5734 10.8997,-18.0709 l 7.0021,-13.6317 -3.9554,-9.5958 c -12.2132,-29.6292 -27.0679,-92.80031 -29.6907,-126.26253 -0.7185,-9.16667 -1.6009,-17.50791 -1.9611,-18.53608 -0.5496,-1.56966 -6.0472,-1.7239 -34.2853,-0.96194 -131.2896,3.54268 -129.0638,3.44378 -182.964,8.12971 -12.4667,1.08381 -34.0667,2.88349 -48,3.99928 -13.9333,1.11579 -54.7333,4.42771 -90.6667,7.35981 -68.5448,5.59316 -74.7269,6.1001 -137.99997,11.31619 -21.63333,1.78341 -50.73333,4.16815 -64.66666,5.29943 -27.4221,2.22645 -149.33086,12.16445 -166.57514,13.57918 -7.21909,0.59227 -13.14301,2.02912 -18.66666,4.52764 -4.45035,2.01303 -29.99154,12.49576 -56.7582,23.29496 -26.76667,10.7992 -52.56667,21.26599 -57.33334,23.25952 -4.76666,1.99353 -12.75224,5.30643 -17.74572,7.36213 -10.36126,4.2652 -15.08728,7.6103 -13.768,9.745 0.6445,1.0428 21.01178,1.5002 69.69911,1.5655 37.83368,0.051 69.16939,0.3169 69.63491,0.5915 0.4655,0.2746 62.64232,0.922 138.1707,1.4388 75.52839,0.5168 137.70847,1.1769 138.17787,1.4671 0.4695,0.2901 31.3735,0.5428 68.6757,0.5616 37.3022,0.019 93.6221,0.6317 125.1554,1.3621 31.5334,0.7304 83.1334,1.9044 114.6667,2.6089 44.1907,0.9873 58.8616,1.7401 64,3.2842 6.7091,2.016 37.1104,18.5755 84,45.7547 13.9333,8.0763 26.6212,14.7532 28.1952,14.8375 1.7035,0.091 4.4396,-1.6436 6.7595,-4.2858 z M 1482.2855,825 c 0.7033,-0.91667 1.9701,-9.16667 2.8153,-18.33333 3.8784,-42.06343 14.7328,-89.06403 29.4203,-127.39231 15.457,-40.33661 18.8732,-47.76496 36.457,-79.27436 12.0652,-21.62043 22.7758,-37.92371 38.9795,-59.33333 18.3989,-24.31003 24.9553,-31.73695 49.4359,-56 30.2036,-29.93516 45.7308,-42.59244 82.5737,-67.31134 49.6503,-33.31169 111.3212,-59.74001 170.9287,-73.24942 48.359,-10.96008 79.9773,-14.0599 134.2742,-13.1641 21.4367,0.35367 40.3266,0.14334 41.9776,-0.46742 4.0014,-1.48018 2.9343,-3.03436 -8.6601,-12.61455 -11.3596,-9.38624 -20.8141,-15.87201 -103.1543,-70.76313 -34.8333,-23.22127 -68.0026,-45.40651 -73.7097,-49.30054 -5.7071,-3.89402 -13.5071,-7.97344 -17.3333,-9.06536 -3.8263,-1.09193 -29.757,-5.9231 -57.6236,-10.73594 -63.9588,-11.0463 -138.5659,-23.99435 -192.6667,-33.43723 -23.1,-4.03193 -52.2,-9.10077 -64.6667,-11.26408 -12.4666,-2.1633 -27.7666,-4.84678 -34,-5.96327 -89.0981,-15.95898 -118.344,-20.40387 -140,-21.27767 C 1366.7,105.62357 1330.1,104.37829 1296,103.28533 1261.9,102.19236 1207.3,100.41005 1174.6667,99.324631 1090.1617,96.513912 967.19235,92.447813 872.66667,89.338719 730.78728,84.672087 671.02392,82.676767 633.33333,81.348093 522.74425,77.449592 515.17407,77.282901 508.31457,78.595259 504.45425,79.333816 459.15425,98.049839 407.64791,120.18642 356.14156,142.323 301.7,165.65945 286.66667,172.0452 c -15.03334,6.38575 -38.43334,16.40739 -52,22.27031 C 221.1,200.17843 174,220.43061 130,239.32039 37.949287,278.83896 29.346337,282.71555 26.789843,285.82803 c -3.640191,4.43185 -0.07665,5.38673 13.475474,3.61088 13.388996,-1.75448 112.575473,-17.20226 159.532083,-24.84628 15.87809,-2.58479 47.46927,-7.65294 70.2026,-11.26256 22.73333,-3.60962 71.63333,-11.41283 108.66667,-17.34044 C 415.7,230.062 466.10712,222.03937 490.68251,218.16156 l 44.68249,-7.05056 31.98417,3.03601 c 17.59128,1.66982 73.98416,6.98034 125.3175,11.80116 C 744,230.769 801.3,236.19375 820,238.00317 c 18.7,1.80942 49.9,4.794 69.33333,6.63242 19.43334,1.83841 76.13334,7.26393 125.99997,12.05672 49.8667,4.79278 106.8667,10.19821 126.6667,12.01206 19.8,1.81386 41.7,3.89387 48.6667,4.62226 6.9666,0.72838 26.4666,2.54414 43.3333,4.03501 41.121,3.63477 66.5728,6.3682 74.7913,8.03231 9.2611,1.87522 18.3041,10.19405 32.0034,29.44038 5.937,8.34112 21.2048,29.86567 33.9284,47.83234 12.7234,17.96666 30.6896,43.16666 39.9246,56 9.2351,12.83333 22.4559,31.43333 29.3798,41.33333 6.9238,9.9 15.7501,22.41305 19.614,27.80679 6.9305,9.67456 8.617,15.04746 5.3585,17.07065 -0.9167,0.56916 -10.6667,4.14225 -21.6667,7.94023 -18.5469,6.4037 -69.5662,25.01809 -122,44.51172 -12.3197,4.58018 -25.2267,8.49958 -29.3333,8.9075 -6.3986,0.63559 -26.8563,-1.36341 -64,-6.25366 -5.5,-0.72412 -22.6,-2.80575 -38,-4.62586 -15.4,-1.8201 -32.5,-3.90333 -38,-4.62941 -5.5,-0.72608 -15.1,-1.92761 -21.3333,-2.67008 -6.2334,-0.74245 -23.6334,-2.84307 -38.6667,-4.66803 -69.1775,-8.39773 -94.6434,-11.48208 -120.66667,-14.61476 -15.4,-1.85384 -45.4,-5.4858 -66.66666,-8.071 C 830.82904,511.24207 781.35828,505.23533 754,501.92451 c -15.4,-1.86367 -32.32357,-3.94939 -37.60793,-4.63491 -10.68539,-1.3862 -13.15606,-1.08877 -30.39207,3.65871 -6.6,1.81789 -22.8,6.19806 -36,9.7337 -24.40027,6.53564 -51.18132,13.73242 -113.33333,30.45562 -19.06667,5.13025 -40.36667,10.83942 -47.33334,12.68704 -6.96666,1.84762 -42.96666,11.53564 -80,21.52892 C 372.3,585.34687 332.1,596.12723 320,599.30995 c -42.42784,11.15996 -75.0592,20.71248 -80.25792,23.49476 -1.48271,0.79352 -2.18081,1.94682 -1.55189,2.56384 1.87873,1.84317 8.97377,2.00448 40.47648,0.92024 16.5,-0.56788 61.5,-1.9086 100,-2.97938 149.12162,-4.14741 171.32077,-4.77533 212,-5.99653 23.1,-0.69347 62.7,-1.62401 88,-2.06788 l 46,-0.80701 26,6.67548 c 14.3,3.67153 56,14.25412 92.66666,23.51686 36.66667,9.26276 85.26667,21.57354 108,27.3573 22.73334,5.78374 69.83337,17.71906 104.66667,26.52292 34.8333,8.80386 82.5333,20.87122 106,26.81637 126.5395,32.05807 184.7599,46.82908 191.3003,48.5346 9.0629,2.36325 12.326,5.93267 24.033,26.28867 4.7667,8.28822 11.1139,17.64506 14.1048,20.79298 l 5.4382,5.7235 h 42.0652 c 32.0814,0 42.3688,-0.39558 43.344,-1.66667 z m 974.605,-3.10264 c 1.2516,-3.26159 -3.2549,-34.94185 -8.3306,-58.56403 -7.7695,-36.15789 -27.6374,-86.30993 -47.8026,-120.66666 -4.9497,-8.43334 -10.0278,-16.53334 -11.2846,-18 -1.2568,-1.46667 -4.0046,-5.36667 -6.106,-8.66667 -17.6,-27.63653 -62.1384,-75.4888 -88.1111,-94.66667 -3.4761,-2.56666 -8.4805,-6.51382 -11.1212,-8.77148 -5.9749,-5.10838 -29.7072,-20.8963 -41.3864,-27.53237 -39.8911,-22.66573 -85.8201,-40.44805 -124.748,-48.29852 -35.3599,-7.13091 -46.3075,-8.06644 -94,-8.03271 -39.4068,0.0279 -46.9637,0.38224 -64.1731,3.00923 -55.4269,8.46085 -103.8424,25.34197 -153.1602,53.40265 -24.0436,13.68024 -60,40.20288 -60,44.25803 0,1.13155 11.3396,13.34005 25.1992,27.13 22.1477,22.03661 25.4978,24.88848 27.6666,23.55191 1.3571,-0.8364 5.5307,-3.73983 9.2746,-6.45207 46.4572,-33.65532 86.9549,-51.878 144.262,-64.91321 25.2533,-5.74418 66.3997,-7.5096 109.6721,-4.70559 16.6197,1.07695 23.6111,2.32072 48.6667,8.65785 51.4625,13.01607 84.0482,28.35486 128.6457,60.55634 13.5433,9.77889 47.8239,41.37156 57.8101,53.27725 18.5271,22.08811 39.5818,54.59444 51.7328,79.87048 7.2191,15.01681 9.8002,21.56025 17.1071,43.36993 1.4208,4.24107 3.2091,8.88012 3.9737,10.30898 1.4375,2.68585 9.7899,42.20398 11.4091,53.97997 0.5041,3.66667 1.5144,7.41667 2.2451,8.33333 1.0024,1.25772 9.9681,1.66667 36.5402,1.66667 30.8335,0 35.3123,-0.26145 36.0188,-2.10264 z M 1663.6056,821 c 0.696,-0.91667 2.0023,-7.09783 2.9027,-13.73592 3.3189,-24.46812 16.5889,-71.09669 25.4036,-89.26408 3.5866,-7.39216 7.6906,-16.63875 9.3114,-20.97897 1.5659,-4.19323 25.6843,-41.36186 30.079,-46.35436 3.8645,-4.39022 11.3644,-16.93322 11.3644,-19.00614 0,-2.38985 -45.6106,-47.66542 -47.9858,-47.63324 -3.6782,0.0499 -33.0825,41.84486 -47.211,67.10544 -26.7539,47.8336 -44.836,102.44482 -51.0568,154.2006 -1.2187,10.13931 -0.8222,14.91215 1.3537,16.29608 0.8616,0.54803 15.7431,1.00562 33.07,1.01684 23.6588,0.0153 31.8184,-0.3946 32.7688,-1.64625 z"
     style="fill:#2ecc71;stroke-width:1.33333337;fill-opacity:1"
     sodipodi:nodetypes="ccccscccccsccccccsccsccccscccsccccccccccccccccsscsssssscsssccccsccsscccccscccsssscccccssscsssssssssscssssscsssssssssccccccsssssscssssccsssssccssssccssssccccscccccccccssssscccssssccccccsccscccsccscsc" />
  <path
     style="stroke-width:10;fill:#eeeeee;fill-opacity:1;stroke-miterlimit:4;stroke-dasharray:none;stroke:#eeeeee;stroke-opacity:1;stroke-linecap:square;stroke-linejoin:round"
     d="m 1392.8462,821.36585 c -2.4327,-2.56235 -9.6716,-13.02793 -16.0864,-23.25686 -7.0339,-11.21621 -13.6413,-19.74504 -16.6468,-21.48785 -2.7409,-1.5894 -146.7812,-38.84749 -320.0894,-82.79576 l -315.10592,-79.90593 -52.51765,1.08666 c -28.8847,0.59765 -118.84235,2.94528 -199.90588,5.21692 -243.22447,6.81586 -232.94118,6.61529 -232.94118,4.54338 0,-3.11675 16.32317,-7.7714 202.44706,-57.72904 62.42824,-16.7564 146.66824,-39.40133 187.2,-50.32207 l 73.69412,-19.85589 18.6353,1.8799 c 15.35321,1.54883 316.19945,37.94983 515.01175,62.31405 28.2183,3.45812 53.0953,5.68578 58.4471,5.23377 6.2684,-0.52943 28.9989,-7.98888 69.4588,-22.79425 33.0776,-12.10401 70.4329,-25.73907 83.0118,-30.30012 22.0856,-8.00821 22.8594,-8.45243 22.5468,-12.94226 -0.1896,-2.72155 -6.1281,-12.88867 -14.3219,-24.51997 -47.1297,-66.90164 -119.8487,-168.46426 -125.4589,-175.22157 -8.8026,-10.60245 -16.0228,-14.78955 -28.8276,-16.71743 -5.8544,-0.88145 -159.3031,-15.70561 -340.99727,-32.94258 -181.69411,-17.23697 -351.31764,-33.33358 -376.94117,-35.77024 -40.6953,-3.8699 -48.30255,-4.1761 -60.14118,-2.42076 -7.45412,1.10524 -97.03059,15.33078 -199.05882,31.61231 -282.888359,45.14294 -298.164709,47.3682 -298.164709,43.43253 0,-2.07218 5.476709,-4.95999 30.118728,-15.88129 C 89.628645,257.01168 443.87078,105.10983 478.17907,90.879033 l 28.8343,-11.960238 h 21.01613 c 11.55888,0 111.66498,3.036733 222.45804,6.748296 110.79304,3.711562 295.21136,9.780566 409.81836,13.486672 114.6071,3.706107 217.9059,7.549897 229.553,8.541747 11.647,0.99185 42.9035,5.52542 69.4588,10.07459 135.4852,23.20987 383.8975,66.78441 397.2624,69.68462 l 15.2388,3.30689 87.2554,58.18964 c 82.2536,54.85417 108.7477,73.63975 110.8235,78.57931 0.6401,1.52274 -1.3558,2.10963 -7.1039,2.08913 -35.3695,-0.12621 -98.2158,2.23341 -115.5703,4.3391 -72.442,8.78966 -154.6044,37.85292 -213.9766,75.68989 -41.2105,26.2628 -60.881,42.13794 -96.9923,78.27816 -52.5066,52.54872 -88.8872,107.66895 -115.8102,175.46429 -19.1015,48.09973 -29.2549,87.59181 -35.0619,136.37472 -1.5527,13.04471 -3.6691,24.27774 -4.7029,24.9623 -1.0338,0.68456 -20.2241,1.25633 -42.6451,1.27059 l -40.7654,0.0259 z"
     id="path3756"
     inkscape:connector-curvature="0" />
  <path
     style="fill:#eeeeee;stroke-width:10;fill-opacity:1;stroke-miterlimit:4;stroke-dasharray:none;stroke:#eeeeee;stroke-opacity:1;stroke-linecap:square;stroke-linejoin:round"
     d="m 1474.5647,1079.5749 c -10.7153,-5.895 -34.6263,-19.178 -53.1356,-29.5177 -18.5093,-10.3398 -37.1869,-19.6268 -41.5059,-20.6379 -11.3093,-2.6474 -106.82,-4.9192 -289.0761,-6.8758 -87.5859,-0.9403 -224.04707,-2.4647 -303.24707,-3.3876 -79.2,-0.9229 -154.86353,-1.682 -168.14117,-1.687 -14.62473,-0.01 -24.14118,-0.6632 -24.14118,-1.6686 0,-0.9128 3.07725,-3.2296 6.83832,-5.1484 8.92263,-4.5519 142.14289,-58.7682 147.47246,-60.01639 2.24907,-0.52674 88.32922,-7.82482 191.28922,-16.21797 102.96002,-8.39314 228.74822,-18.66499 279.52942,-22.82632 91.136,-7.46827 151.645,-10.54775 224.4706,-11.42399 l 37.2706,-0.44844 1.3506,11.01177 c 5.4954,44.80643 17.4998,98.46974 28.6942,128.27274 l 5.8259,15.5103 -7.1898,13.8084 c -6.5426,12.5652 -13.3425,21.996 -15.8468,21.9781 -0.5364,0 -9.7424,-4.8302 -20.4577,-10.7252 z"
     id="path3758"
     inkscape:connector-curvature="0" />
  <path
     style="fill:#eeeeee;stroke-width:10;fill-opacity:1;stroke-miterlimit:4;stroke-dasharray:none;stroke:#eeeeee;stroke-opacity:1;paint-order:fill markers stroke;stroke-linecap:square;stroke-linejoin:round"
     d="m 1979.4118,1295.1482 c -17.7635,-1.5088 -58.3002,-8.6163 -72.8471,-12.7726 -20.4937,-5.8554 -56.3626,-20.3028 -79.6235,-32.0711 -89.5357,-45.2984 -167.7153,-130.8171 -204.8876,-224.1214 -17.0269,-42.73841 -28.9006,-92.871 -28.9006,-122.0229 v -8.6767 h 34.3906 c 37.1861,0 38.4564,0.29796 38.4564,9.02009 0,9.97845 8.8374,48.34802 16.3364,70.92833 13.2568,39.91768 33.7933,78.36558 59.097,110.63978 12.405,15.8223 49.6679,52.7729 64.3313,63.7922 42.6941,32.0838 89.8528,53.7374 145.6942,66.8974 20.0049,4.7145 21.1677,4.7913 72.847,4.8154 48.9066,0.023 53.7408,-0.248 70.3059,-3.9381 58.3149,-12.9904 114.4712,-39.512 157.8547,-74.5517 26.6844,-21.5524 61.6415,-61.7511 79.9344,-91.9201 12.2522,-20.2066 27.275,-52.92694 34.8952,-76.00333 7.1991,-21.80113 15.3157,-57.90888 15.3157,-68.13373 0,-11.61332 0.2068,-11.67253 38.9686,-11.15912 l 34.7255,0.45994 -0.4383,12.70588 c -1.3816,40.05496 -19.4595,103.05716 -42.7111,148.84956 -54.9145,108.1503 -151.4922,189.0639 -265.18,222.1701 -34.0685,9.9208 -56.3063,13.4879 -94.8706,15.2179 -40.4565,1.8149 -51.0601,1.7968 -73.6941,-0.1257 z"
     id="path3760"
     inkscape:connector-curvature="0" />
  <path
     style="fill:#eeeeee;stroke-width:10;fill-opacity:1;stroke-miterlimit:4;stroke-dasharray:none;stroke:#eeeeee;stroke-opacity:1;stroke-linecap:square;stroke-linejoin:round"
     d="m 2396.6934,823.07479 -12.1772,-0.58253 -1.8935,-9.6691 c -13.0454,-66.61562 -28.5595,-106.52794 -59.0378,-151.88386 -18.4901,-27.51596 -30.9008,-41.8976 -55.6351,-64.47057 -34.395,-31.38948 -76.2659,-57.45337 -115.738,-72.0448 -21.8626,-8.08181 -63.3099,-18.17859 -82.8578,-20.18459 -22.1661,-2.27467 -65.0653,-2.29986 -88.7683,-0.0521 -19.5868,1.85738 -53.4226,9.89212 -78.2563,18.58296 -24.0244,8.40764 -54.8813,24.33328 -80.5907,41.59397 l -23.66,15.88481 -11.404,-9.82492 c -6.2723,-5.40371 -17.8721,-16.91535 -25.7775,-25.58144 l -14.3734,-15.75651 8.444,-7.53806 c 4.6442,-4.14593 18.3709,-14.1418 30.5039,-22.21305 52.9623,-35.23242 111.8523,-57.70127 176.1519,-67.20886 20.3188,-3.00443 99.2195,-3.47718 121.1738,-0.72604 76.0958,9.53572 151.3596,41.70274 212.5673,90.84923 18.7624,15.06515 56.0112,52.46589 70.5465,70.8342 34.1582,43.16576 60.943,95.45564 76.7394,149.81232 5.7526,19.795 12.2941,54.75378 13.1777,70.42297 l 0.4776,8.47059 -10.1647,1.08673 c -10.5535,1.12828 -28.5077,1.20042 -49.4478,0.19868 z"
     id="path3762"
     inkscape:connector-curvature="0" />
</svg>
